<?xml version="1.0" encoding="UTF-8"?>
<svg width="88px" height="88px" viewBox="0 0 88 88" version="1.1" xmlns="http://www.w3.org/2000/svg" xmlns:xlink="http://www.w3.org/1999/xlink">
    <!-- Generator: Sketch 46.2 (44496) - http://www.bohemiancoding.com/sketch -->
    <title>component/iconWorks_4_line</title>
    <desc>Created with Sketch.</desc>
    <defs></defs>
    <g id="Symbols" stroke="none" stroke-width="1" fill="none" fill-rule="evenodd">
        <g id="component/iconWorks_4_line">
            <g id="Group" transform="translate(22.000000, 22.000000)">
                <path d="M11.7042663,36.2167703 L22,12.6836646 L32.2957337,36.2167703 C32.6703533,37.0730437 33.6681893,37.4635012 34.5244626,37.0888816 C35.380736,36.714262 35.7711936,35.7164261 35.396574,34.8601527 L25.1008402,11.327047 C24.7595397,10.5469317 24.136733,9.92412491 23.3566176,9.58282443 C21.6440708,8.83358522 19.648399,9.61450029 18.8991598,11.327047 L8.60342605,34.8601527 C8.22880644,35.7164261 8.61926398,36.714262 9.47553736,37.0888816 C10.3318107,37.4635012 11.3296467,37.0730437 11.7042663,36.2167703 Z" id="Triangle" fill="#FFFFFF"></path>
                <path d="M8.69770442,24.0223542 C12.1765244,27.5755082 16.9272566,29.6153846 22,29.6153846 C27.0700317,29.6153846 31.8184453,27.5777004 35.2968665,24.027897 C35.6239371,23.6941145 35.618496,23.1583871 35.2847134,22.8313165 C34.9509309,22.5042459 34.4152035,22.509687 34.0881329,22.8434696 C30.9248334,26.0716845 26.6105354,27.9230769 22,27.9230769 C17.387,27.9230769 13.0705926,26.0696915 9.90692863,22.8384277 C9.57999634,22.5045096 9.04427128,22.4988466 8.71035324,22.8257789 C8.37643519,23.1527111 8.37077212,23.6884362 8.69770442,24.0223542 Z" id="Oval-2" fill="#FFFFFF"></path>
                <rect id="Rectangle-4" stroke="#FFFFFF" stroke-width="0.507692308" x="0.253846154" y="0.253846154" width="43.4923077" height="43.4923077" rx="3.38461538"></rect>
                <rect id="Rectangle-8" fill="#FFFFFF" x="20.3076923" y="4.23076923" width="3.38461538" height="3.38461538" rx="1.69230769"></rect>
            </g>
        </g>
    </g>
</svg>