<?xml version="1.0" encoding="UTF-8"?>
<svg width="88px" height="88px" viewBox="0 0 88 88" version="1.1" xmlns="http://www.w3.org/2000/svg" xmlns:xlink="http://www.w3.org/1999/xlink">
    <!-- Generator: Sketch 46.2 (44496) - http://www.bohemiancoding.com/sketch -->
    <title>component/iconChallenge_6_line</title>
    <desc>Created with Sketch.</desc>
    <defs></defs>
    <g id="Symbols" stroke="none" stroke-width="1" fill="none" fill-rule="evenodd">
        <g id="component/iconChallenge_6_line">
            <path d="M20.3,28.7 L67.7,28.7 L67.7,25 C67.7,24.0611159 66.9388841,23.3 66,23.3 L22,23.3 C21.0611159,23.3 20.3,24.0611159 20.3,25 L20.3,28.7 Z" id="Combined-Shape" stroke="#FCFCFC" stroke-width="0.6"></path>
            <polygon id="Combined-Shape" fill="#FFFFFF" points="22 25 22 27 24 27 24 25"></polygon>
            <polygon id="Combined-Shape" fill="#FFFFFF" points="26 25 26 27 28 27 28 25"></polygon>
            <polygon id="Combined-Shape" fill="#FFFFFF" points="30 25 30 27 32 27 32 25"></polygon>
            <path d="M20.3,31.3 L20.3,63 C20.3,63.9388841 21.0611159,64.7 22,64.7 L66,64.7 C66.9388841,64.7 67.7,63.9388841 67.7,63 L67.7,31.3 L20.3,31.3 Z" id="Rectangle-10" stroke="#FCFCFC" stroke-width="0.6"></path>
            <polygon id="Rectangle-13" fill="#FFFFFF" points="40 55 41 56 41 55 47 55 40.5 55 41 55 41 54"></polygon>
            <polygon id="Rectangle-13" fill="#FFFFFF" points="53 55 47 55 53 55 53 54 54 55 53.5 55 54 55 53 56"></polygon>
            <polygon id="Rectangle-13" fill="#FFFFFF" points="53 55 47 55 53 55 53 54 54 55 53.5 55 54 55 53 56"></polygon>
            <polygon id="Rectangle-13" fill="#FFFFFF" points="40 54 54 54 54 56 40 56"></polygon>
            <polygon id="Path-11" fill="#FFFFFF" points="29.3580595 54.2834853 30.6988814 55.7674654 39.2689408 48.0241521 30.6993322 40.2717812 29.3576087 41.7549461 36.2866987 48.0232459"></polygon>
        </g>
    </g>
</svg>