<?xml version="1.0" encoding="UTF-8"?>
<svg width="88px" height="88px" viewBox="0 0 88 88" version="1.1" xmlns="http://www.w3.org/2000/svg" xmlns:xlink="http://www.w3.org/1999/xlink">
    <!-- Generator: Sketch 46.2 (44496) - http://www.bohemiancoding.com/sketch -->
    <title>component/iconChallenge_7_line</title>
    <desc>Created with Sketch.</desc>
    <defs></defs>
    <g id="Symbols" stroke="none" stroke-width="1" fill="none" fill-rule="evenodd">
        <g id="component/iconChallenge_7_line">
            <path d="M44,52.6705882 C39.9650726,52.6705882 36.6941176,49.3996333 36.6941176,45.3647059 C36.6941176,41.3297785 39.9650726,38.0588235 44,38.0588235 C48.0349274,38.0588235 51.3058824,41.3297785 51.3058824,45.3647059 C51.3058824,49.3996333 48.0349274,52.6705882 44,52.6705882 Z M44,49.4941176 C46.2806111,49.4941176 48.1294118,47.645317 48.1294118,45.3647059 C48.1294118,43.0840947 46.2806111,41.2352941 44,41.2352941 C41.7193889,41.2352941 39.8705882,43.0840947 39.8705882,45.3647059 C39.8705882,47.645317 41.7193889,49.4941176 44,49.4941176 Z" id="Combined-Shape" fill="#FCFCFC"></path>
            <circle id="Oval-4" stroke="#FFFFFF" stroke-width="0.6" cx="44" cy="46" r="27"></circle>
            <path d="M44.7937269,53.9411765 C36.8058242,53.9411765 24.6235294,48.8588235 24.6235294,45.0470588 C24.6235294,41.2352941 36.8707931,36.1529412 44.7937269,36.1529412 C52.7816296,36.1529412 64.9639244,41.2010048 64.9639244,45.0470588 C64.9639244,48.8588235 52.7816296,53.9411765 44.7937269,53.9411765 Z M44,52.6705882 C48.3857907,52.6705882 51.9411765,49.1152024 51.9411765,44.7294118 C51.9411765,40.3436211 48.3857907,36.7882353 44,36.7882353 C39.6142093,36.7882353 36.0588235,40.3436211 36.0588235,44.7294118 C36.0588235,49.1152024 39.6142093,52.6705882 44,52.6705882 Z" id="Combined-Shape" fill="#FFFFFF"></path>
        </g>
    </g>
</svg>