<?xml version="1.0" encoding="UTF-8"?>
<svg width="88px" height="88px" viewBox="0 0 88 88" version="1.1" xmlns="http://www.w3.org/2000/svg" xmlns:xlink="http://www.w3.org/1999/xlink">
    <!-- Generator: Sketch 46.2 (44496) - http://www.bohemiancoding.com/sketch -->
    <title>component/iconWorks_2_line</title>
    <desc>Created with Sketch.</desc>
    <defs></defs>
    <g id="Symbols" stroke="none" stroke-width="1" fill="none" fill-rule="evenodd">
        <g id="component/iconWorks_2_line">
            <g id="Group" transform="translate(15.000000, 24.000000)">
                <path d="M49.576213,31.898534 C49.5762164,31.8993244 49.5762181,31.9001152 49.5762181,31.9009065 L49.8762181,31.9009065 L49.8762181,31.6009065 L49.8758704,31.6009065 L49.576213,31.898534 Z M48.7447641,32.4814309 L48.7448845,32.7814309 L49.0448845,32.7813105 L49.0447641,32.4813105 L48.7447641,32.4814309 Z M14.0469469,32.4953592 L13.8094334,32.4954546 L14.1015257,32.7265168 L14.0469469,32.4953592 Z M8.51961861,0.3 L8.76316999,0.3 L8.46957202,0.0616460368 L8.51961861,0.3 Z M49.576213,31.898534 L49.5758773,31.8988674 L49.5755437,31.9479519 C49.5755367,32.2431632 49.3379361,32.4808592 49.044764,32.4809769 L48.744764,32.4810973 L48.7447641,32.4814309 L14.0469469,32.4953592 L6.9131873,2.281767 L1.29487177,2.281767 C1.00161635,2.281767 0.763885857,2.04403651 0.763885857,1.75078109 L0.763885857,0.830985915 C0.763885857,0.537730492 1.00161635,0.3 1.29487177,0.3 L8.51961861,0.3 L9.67649384,5.80978182 L57.7035831,5.80978182 C58.2530356,5.80978182 58.6984548,6.25520109 58.6984548,6.80465359 C58.6984548,6.90174446 58.6842424,6.99831243 58.6562695,7.09128637 L52.7218446,26.8156399 C52.4307105,27.7832875 51.5396879,28.4456848 50.5291925,28.4456848 L14.4292982,28.4456848 L15.0463545,31.3845027 L49.045013,31.3699206 L49.0452322,31.3699206 C49.3376964,31.3699206 49.5749349,31.6063699 49.576213,31.898534 Z" id="Combined-Shape" stroke="#FCFCFC" stroke-width="0.6"></path>
                <ellipse id="Oval-2-Copy" fill="#FFFFFF" cx="47.3661972" cy="35.3181818" rx="1.66197183" ry="1.68181818"></ellipse>
                <ellipse id="Oval-2-Copy" fill="#FFFFFF" cx="17.4507042" cy="35.3181818" rx="1.66197183" ry="1.68181818"></ellipse>
            </g>
        </g>
    </g>
</svg>