<?xml version="1.0" encoding="UTF-8"?>
<svg width="88px" height="88px" viewBox="0 0 88 88" version="1.1" xmlns="http://www.w3.org/2000/svg" xmlns:xlink="http://www.w3.org/1999/xlink">
    <!-- Generator: Sketch 46.2 (44496) - http://www.bohemiancoding.com/sketch -->
    <title>component/iconSolution_10_line</title>
    <desc>Created with Sketch.</desc>
    <defs></defs>
    <g id="Symbols" stroke="none" stroke-width="1" fill="none" fill-rule="evenodd">
        <g id="component/iconSolution_10_line">
            <g id="Group" transform="translate(16.000000, 23.000000)">
                <path d="M51.3333333,23.3333333 C52.6219977,23.3333333 53.6666667,22.2886644 53.6666667,21 C53.6666667,19.7113356 52.6219977,18.6666667 51.3333333,18.6666667 C50.0446689,18.6666667 49,19.7113356 49,21 C49,22.2886644 50.0446689,23.3333333 51.3333333,23.3333333 Z" id="Path" fill="#FCFCFC"></path>
                <rect id="Rectangle-12" stroke="#FFFFFF" stroke-width="0.7" x="0.35" y="0.35" width="55.3" height="41.3" rx="2.33333333"></rect>
                <rect id="Rectangle-12" stroke="#FFFFFF" stroke-width="0.7" x="3.85" y="3.85" width="43.6333333" height="34.3"></rect>
                <g id="app" transform="translate(17.500000, 10.500000)" fill="#FFFFFF">
                    <path d="M2.16082198,18.793116 L8.16666667,5.06547104 L14.1725113,18.793116 C14.3910395,19.2926088 14.9731104,19.5203757 15.4726032,19.3018476 C15.972096,19.0833195 16.1998629,18.5012486 15.9813348,18.0017558 L9.97549012,4.27411078 C9.77639818,3.81904347 9.41309424,3.45573953 8.95802693,3.25664758 C7.95904132,2.81959138 6.79489941,3.27512517 6.35784321,4.27411078 L0.351998528,18.0017558 C0.133470426,18.5012486 0.36123732,19.0833195 0.860730125,19.3018476 C1.36022293,19.5203757 1.94229388,19.2926088 2.16082198,18.793116 Z" id="Triangle"></path>
                    <path d="M0.406994243,11.6797066 C2.4363059,13.7523798 5.20756634,14.9423077 8.16666667,14.9423077 C11.1241852,14.9423077 13.8940931,13.7536585 15.9231721,11.6829399 C16.1139633,11.4882334 16.1107893,11.1757258 15.9160828,10.9849346 C15.7213763,10.7941434 15.4088687,10.7973174 15.2180775,10.9920239 C13.3728195,12.8751493 10.8561456,13.9551282 8.16666667,13.9551282 C5.47575001,13.9551282 2.9578457,12.8739867 1.11237503,10.9890828 C0.921664529,10.7942973 0.609158249,10.7909938 0.414372722,10.9817043 C0.219587195,11.1724148 0.216283737,11.4849211 0.406994243,11.6797066 Z" id="Oval-2"></path>
                    <rect id="Rectangle-8" x="7.17948718" y="0.134615385" width="1.97435897" height="1.97435897" rx="0.987179487"></rect>
                </g>
            </g>
        </g>
    </g>
</svg>