<?xml version="1.0" encoding="UTF-8"?>
<svg width="88px" height="88px" viewBox="0 0 88 88" version="1.1" xmlns="http://www.w3.org/2000/svg" xmlns:xlink="http://www.w3.org/1999/xlink">
    <!-- Generator: Sketch 46.2 (44496) - http://www.bohemiancoding.com/sketch -->
    <title>component/iconSolution_ 11_line</title>
    <desc>Created with Sketch.</desc>
    <defs></defs>
    <g id="Symbols" stroke="none" stroke-width="1" fill="none" fill-rule="evenodd">
        <g id="component/iconSolution_-11_line">
            <g id="Group" transform="translate(22.000000, 17.000000)">
                <path d="M17.558526,49.2555556 C17.504994,49.5352529 17.4777778,49.8212975 17.4777778,50.1111111 C17.4777778,52.6086655 19.5024456,54.6333333 22,54.6333333 C24.4975544,54.6333333 26.5222222,52.6086655 26.5222222,50.1111111 C26.5222222,49.8212975 26.495006,49.5352529 26.441474,49.2555556 L17.558526,49.2555556 Z" id="Combined-Shape" stroke="#FFFFFF" stroke-width="0.733333333"></path>
                <path d="M23.0907996,2.81641977 C22.7700967,2.82564654 22.4395343,2.84693464 22.0731026,2.88054849 C21.8420268,2.86108102 21.6108913,2.84798209 21.3796885,2.84125091 L21.3796885,2.97916785 L21.081161,3.03562791 C19.2235349,3.38695795 17.3664409,4.15120331 15.508987,5.33082737 C14.5591669,5.93403515 13.5759192,6.77877421 12.6556137,8.00256075 C11.2716364,9.84292004 10.4212927,12.0979492 10.3181921,14.815472 C10.1319011,19.7257246 9.00687823,25.7981451 6.9431188,33.0418875 L5.38237674,38.2196334 L21.3796885,38.2196334 L21.3796885,38.2444366 L39.088115,38.2444366 L37.5257986,33.0613328 C35.4636098,25.8229483 34.338587,19.7505278 34.1522959,14.8402752 C34.0491953,12.1227524 33.1988516,9.86772322 31.8148743,8.02736393 C30.8945688,6.80357739 29.9113212,5.95883833 28.9615011,5.35563055 C27.1040472,4.17600653 25.2469533,3.41176114 23.3893271,3.06043095 L23.0907996,3.00397087 L23.0907996,2.81641811 Z" id="Combined-Shape" stroke="#FFFFFF" stroke-width="0.733333333"></path>
                <path d="M3.68735499,40.7 L2.39511915,42.9731557 C2.21719619,43.2861378 2.12365014,43.6399801 2.12365014,44 C2.12365014,45.147525 3.05390294,46.0777778 4.20142792,46.0777778 L39.7985721,46.0777778 C40.158592,46.0777778 40.5124343,45.9842317 40.8254163,45.8063088 C41.8230131,45.2391983 42.1719913,43.9707525 41.6048808,42.9731557 L40.312645,40.7 L3.68735499,40.7 Z" id="Rectangle-3" stroke="#FFFFFF" stroke-width="0.733333333"></path>
                <path d="M24.3996188,2.91282074 C24.4290354,2.76122851 24.4444444,2.60463596 24.4444444,2.44444444 C24.4444444,1.09441506 23.3500294,0 22,0 C20.6499706,0 19.5555556,1.09441506 19.5555556,2.44444444 C19.5555556,2.64039549 19.5786119,2.83096143 19.6221597,3.01357737 C20.0854901,2.87582997 20.5491107,2.76308686 21.0130218,2.67534802 L21.0130218,2.46924762 C21.3768204,2.46924762 21.7404412,2.48455713 22.1038842,2.51517615 C22.5548044,2.46802168 23.0059984,2.44444444 23.4574662,2.44444444 L23.4574662,2.7001512 C23.7716503,2.75957238 24.0857011,2.83046222 24.3996188,2.91282074 Z" id="Combined-Shape" fill="#FFFFFF"></path>
            </g>
        </g>
    </g>
</svg>