<?xml version="1.0" encoding="UTF-8"?>
<svg width="88px" height="88px" viewBox="0 0 88 88" version="1.1" xmlns="http://www.w3.org/2000/svg" xmlns:xlink="http://www.w3.org/1999/xlink">
    <!-- Generator: Sketch 46.2 (44496) - http://www.bohemiancoding.com/sketch -->
    <title>component/iconWorks_3_line</title>
    <desc>Created with Sketch.</desc>
    <defs></defs>
    <g id="Symbols" stroke="none" stroke-width="1" fill="none" fill-rule="evenodd">
        <g id="component/iconWorks_3_line">
            <rect id="Rectangle" stroke="#FFFFFF" stroke-width="0.4" x="56.7999985" y="31.8000004" width="22.6" height="35.6"></rect>
            <path d="M33.4879293,57 L47.5120707,57 L47.5120707,57 C47.9348723,57 48.3119853,57.2659034 48.4539848,57.6641461 L49.7142085,61.1984876 L49.7142085,61.1984876 C49.8255007,61.5106105 49.6626952,61.8538563 49.3505724,61.9651485 C49.2858909,61.9882116 49.2177302,62 49.14906,62 L31.85094,62 L31.85094,62 C31.5195691,62 31.25094,61.7313708 31.25094,61.4 C31.25094,61.3313297 31.2627284,61.2631691 31.2857915,61.1984876 L32.5460152,57.6641461 L32.5460152,57.6641461 C32.6880147,57.2659034 33.0651277,57 33.4879293,57 Z" id="Rectangle-5" fill="#FFFFFF"></path>
            <circle id="Oval-3" fill="#FFFFFF" cx="68" cy="64" r="1"></circle>
            <rect id="Rectangle-6" fill="#FFFFFF" x="60" y="34" width="16" height="26"></rect>
            <path d="M14.122649,51.7999985 L8.62345832,62.4514294 C8.34519869,62.9903929 8.2,63.5881366 8.2,64.1946925 L8.2,66.3858166 C8.2,66.8276444 8.5581722,67.1858166 9,67.1858166 L56.7921573,67.1858166 L56.7921573,51.7999985 L14.122649,51.7999985 Z" id="Path-12" stroke="#FFFFFF" stroke-width="0.4"></path>
            <path d="M14.2040382,51.7953681 L56.7957015,51.7953681 L56.7957015,32.9934854 C56.7957015,32.3307437 57.3329598,31.7934854 57.9957015,31.7934854 L67.1544683,31.7934854 L67.1544683,20.9289295 C67.1544683,20.4871017 66.7962961,20.1289295 66.3544683,20.1289295 L15.1159386,20.1289295 C14.6752429,20.1289295 14.3175414,20.4853367 14.3159438,20.9260294 L14.2040382,51.7953681 Z" id="Path-13" stroke="#FFFFFF" stroke-width="0.4"></path>
        </g>
    </g>
</svg>