<?xml version="1.0" encoding="UTF-8"?>
<svg width="88px" height="88px" viewBox="0 0 88 88" version="1.1" xmlns="http://www.w3.org/2000/svg" xmlns:xlink="http://www.w3.org/1999/xlink">
    <!-- Generator: Sketch 46.2 (44496) - http://www.bohemiancoding.com/sketch -->
    <title>component/iconChallenge_5_line</title>
    <desc>Created with Sketch.</desc>
    <defs></defs>
    <g id="Symbols" stroke="none" stroke-width="1" fill="none" fill-rule="evenodd">
        <g id="component/iconChallenge_5_line">
            <path d="M31.3,41.7 L56.7,41.7 L56.7,18 C56.7,17.0611159 55.9388841,16.3 55,16.3 L33,16.3 C32.0611159,16.3 31.3,17.0611159 31.3,18 L31.3,41.7 Z" id="Rectangle-3" stroke="#FFFFFF" stroke-width="0.6"></path>
            <rect id="Rectangle-9" stroke="#FFFFFF" stroke-width="0.6" x="16.3" y="59.3" width="13.4" height="12.4" rx="2"></rect>
            <rect id="Rectangle-9-Copy" stroke="#FFFFFF" stroke-width="0.6" x="37.3" y="59.3" width="13.4" height="12.4" rx="2"></rect>
            <rect id="Rectangle-9-Copy-2" stroke="#FFFFFF" stroke-width="0.6" x="58.3" y="59.3" width="13.4" height="12.4" rx="2"></rect>
            <path d="M31,44 L57,44 L57,45 L57,45 C57,46.1045695 56.1045695,47 55,47 L33,47 L33,47 C31.8954305,47 31,46.1045695 31,45 L31,44 Z" id="Rectangle-7" fill="#FFFFFF"></path>
            <polygon id="Path-9" fill="#FFFFFF" points="43.5 45 43.5 59 44.1 59 44.1 45"></polygon>
            <polygon id="IP" fill="#FFFFFF" points="38.232 23.568 40.584 23.568 40.584 34 38.232 34"></polygon>
            <path d="M43.048,23.568 L46.856,23.568 C47.4213362,23.568 47.9519975,23.6239994 48.448,23.736 C48.9440025,23.8480006 49.3759982,24.0346654 49.744,24.296 C50.1120018,24.5573346 50.4026656,24.9039978 50.616,25.336 C50.8293344,25.7680022 50.936,26.2986635 50.936,26.928 C50.936,27.536003 50.8266678,28.0639978 50.608,28.512 C50.3893322,28.9600022 50.0933352,29.3279986 49.72,29.616 C49.3466648,29.9040014 48.9146691,30.1173326 48.424,30.256 C47.9333309,30.3946674 47.4106694,30.464 46.856,30.464 L45.4,30.464 L45.4,34 L43.048,34 L43.048,23.568 Z M46.712,28.592 C47.9920064,28.592 48.632,28.0373389 48.632,26.928 C48.632,26.3839973 48.469335,26.0000011 48.144,25.776 C47.818665,25.5519989 47.3413365,25.44 46.712,25.44 L45.4,25.44 L45.4,28.592 L46.712,28.592 Z" id="Combined-Shape" fill="#FFFFFF"></path>
            <polyline id="Path-3" stroke="#FFFFFF" stroke-width="0.6" points="23.0226731 59.7141238 23.0226731 52.5031621 65.0026261 52.5031621 65.0026261 60.0762335"></polyline>
        </g>
    </g>
</svg>