<?xml version="1.0" encoding="UTF-8"?>
<svg width="455px" height="89px" viewBox="0 0 455 89" version="1.1" xmlns="http://www.w3.org/2000/svg" xmlns:xlink="http://www.w3.org/1999/xlink">
    <!-- Generator: Sketch 46.2 (44496) - http://www.bohemiancoding.com/sketch -->
    <title>image/imgVkController</title>
    <desc>Created with Sketch.</desc>
    <defs>
        <radialGradient cx="50%" cy="50%" fx="50%" fy="50%" r="214.86626%" id="radialGradient-1">
            <stop stop-color="#1D2115FF" offset="0%"></stop>
            <stop stop-color="#00E5FF" offset="100%"></stop>
        </radialGradient>
    </defs>
    <g id="Page-1" stroke="none" stroke-width="1" fill="none" fill-rule="evenodd">
        <g id="portfolio" transform="translate(-474.000000, -613.000000)">
            <g id="image/imgVkController" transform="translate(474.000000, 614.000000)">
                <g id="image" stroke="#FFFFFF">
                    <path d="M0.486987733,72.6519003 L0.486987733,34.2164969 L0.486987733,34.2164969 C0.486987733,33.1212057 1.08390101,32.1129673 2.04420986,31.5862133 L57.2701821,1.29335455 L57.2701821,1.29335455 C58.7671113,0.472250578 60.4493431,0.0480856027 62.1566319,0.0612645966 L452.434775,3.07392022 L452.434775,3.07392022 C453.533288,3.08239991 454.419337,3.97531532 454.419337,5.07386063 L454.419337,41.8596815 L454.419337,41.8596815 C454.419337,42.8576147 454.046313,43.8195073 453.373496,44.5565208 L420.22228,80.8708775 L420.22228,80.8708775 C419.833379,81.2968852 419.279485,81.5342396 418.702791,81.5220082 L0.486987733,72.6519003 Z" id="Path-4" stroke-width="0.6" fill="#040829"></path>
                    <path d="M419.486763,81.5553299 L419.486763,44.4186073 L419.486763,44.4186073 C419.486763,41.5885569 420.577517,38.867388 422.532243,36.8208704 L454.071498,3.80055766" id="Path-5" stroke-width="0.6"></path>
                    <path d="M0.651265569,33.6074612 L420.35793,40.5299351" id="Path-6" stroke-width="0.6"></path>
                    <path d="M380.65029,80.8688262 L416.658215,81.6929456 C414.133382,84.544527 408.25038,86.1475759 399.00921,86.5020922 C385.147456,87.0338667 385.828622,85.7554016 380.65029,83.3741317 L380.65029,80.8688262 Z" id="Path-7" fill-opacity="0.348307292" fill="#040829"></path>
                    <path d="M27.2001031,73.3138558 L27.2001031,76.90355 C30.5856556,78.9025429 35.4036394,79.7656465 41.6540545,79.4928605 C46.6244162,79.55953 53.3532652,77.741348 61.8406015,74.0383146 L27.2001031,73.3138558 Z" id="Path-8" fill-opacity="0.348307292" fill="#040829"></path>
                </g>
                <g id="led" transform="translate(69.000000, 51.000000)" stroke="url(#radialGradient-1)" fill="#00E5FF">
                    <g id="light" transform="translate(15.000000, 10.000000) rotate(2.000000) translate(-15.000000, -10.000000) translate(1.000000, 8.000000)">
                        <circle id="Oval-3" cx="2" cy="2" r="2"></circle>
                        <circle id="Oval-3-Copy" cx="10" cy="2" r="2"></circle>
                        <circle id="Oval-3-Copy-2" cx="18" cy="2" r="2"></circle>
                        <circle id="Oval-3-Copy-3" cx="26" cy="2" r="2"></circle>
                    </g>
                    <g id="light" transform="translate(60.061271, 10.487375) rotate(2.000000) translate(-60.061271, -10.487375) translate(46.061271, 8.487375)">
                        <circle id="Oval-3" cx="2" cy="2" r="2"></circle>
                        <circle id="Oval-3-Copy" cx="10" cy="2" r="2"></circle>
                        <circle id="Oval-3-Copy-2" cx="18" cy="2" r="2"></circle>
                        <circle id="Oval-3-Copy-3" cx="26" cy="2" r="2"></circle>
                    </g>
                    <g id="light" transform="translate(105.061271, 10.487375) rotate(2.000000) translate(-105.061271, -10.487375) translate(91.061271, 8.487375)">
                        <circle id="Oval-3" cx="2" cy="2" r="2"></circle>
                        <circle id="Oval-3-Copy" cx="10" cy="2" r="2"></circle>
                        <circle id="Oval-3-Copy-2" cx="18" cy="2" r="2"></circle>
                        <circle id="Oval-3-Copy-3" cx="26" cy="2" r="2"></circle>
                    </g>
                    <g id="ledVerticle-Copy-3" transform="translate(131.000000, 0.000000)">
                        <circle id="Oval-3" transform="translate(3.000000, 11.000000) rotate(2.000000) translate(-3.000000, -11.000000) " cx="3" cy="11" r="2"></circle>
                        <circle id="Oval-3-Copy" transform="translate(3.000000, 3.000000) rotate(2.000000) translate(-3.000000, -3.000000) " cx="3" cy="3" r="2"></circle>
                    </g>
                    <g id="ledVerticle-Copy-2" transform="translate(141.000000, 0.799988)">
                        <circle id="Oval-3" transform="translate(3.000000, 11.000000) rotate(2.000000) translate(-3.000000, -11.000000) " cx="3" cy="11" r="2"></circle>
                        <circle id="Oval-3-Copy" transform="translate(3.000000, 3.000000) rotate(2.000000) translate(-3.000000, -3.000000) " cx="3" cy="3" r="2"></circle>
                    </g>
                    <g id="ledVerticle-Copy-3" transform="translate(151.000000, 0.900024)">
                        <circle id="Oval-3" transform="translate(3.000000, 11.000000) rotate(2.000000) translate(-3.000000, -11.000000) " cx="3" cy="11" r="2"></circle>
                        <circle id="Oval-3-Copy" transform="translate(3.000000, 3.000000) rotate(2.000000) translate(-3.000000, -3.000000) " cx="3" cy="3" r="2"></circle>
                    </g>
                    <g id="ledVerticle-Copy-2" transform="translate(161.000000, 1.500000)">
                        <circle id="Oval-3" transform="translate(3.000000, 11.000000) rotate(2.000000) translate(-3.000000, -11.000000) " cx="3" cy="11" r="2"></circle>
                        <circle id="Oval-3-Copy" transform="translate(3.000000, 3.000000) rotate(2.000000) translate(-3.000000, -3.000000) " cx="3" cy="3" r="2"></circle>
                    </g>
                    <g id="ledVerticle-Copy-3" transform="translate(171.000000, 2.299988)">
                        <circle id="Oval-3" transform="translate(3.000000, 11.000000) rotate(2.000000) translate(-3.000000, -11.000000) " cx="3" cy="11" r="2"></circle>
                        <circle id="Oval-3-Copy" transform="translate(3.000000, 3.000000) rotate(2.000000) translate(-3.000000, -3.000000) " cx="3" cy="3" r="2"></circle>
                    </g>
                    <g id="ledVerticle-Copy-2" transform="translate(181.000000, 3.000000)">
                        <circle id="Oval-3" transform="translate(3.000000, 11.000000) rotate(2.000000) translate(-3.000000, -11.000000) " cx="3" cy="11" r="2"></circle>
                        <circle id="Oval-3-Copy" transform="translate(3.000000, 3.000000) rotate(2.000000) translate(-3.000000, -3.000000) " cx="3" cy="3" r="2"></circle>
                    </g>
                    <circle id="Oval-3" transform="translate(285.068581, 13.068581) rotate(2.000000) translate(-285.068581, -13.068581) " cx="285.068581" cy="13.0685806" r="2"></circle>
                </g>
            </g>
        </g>
    </g>
</svg>