<?xml version="1.0" encoding="UTF-8"?>
<svg width="244px" height="292px" viewBox="0 0 244 292" version="1.1" xmlns="http://www.w3.org/2000/svg" xmlns:xlink="http://www.w3.org/1999/xlink">
    <!-- Generator: Sketch 47.1 (45422) - http://www.bohemiancoding.com/sketch -->
    <title>elderPortrait</title>
    <desc>Created with Sketch.</desc>
    <defs></defs>
    <g id="draft" stroke="none" stroke-width="1" fill="none" fill-rule="evenodd">
        <g id="elderPortrait">
            <g id="Group-17" transform="translate(0.000000, -6.000000)">
                <rect id="Rectangle-32" fill="#040829" x="0" y="0" width="244" height="303"></rect>
                <path d="M136.999654,135.714286 L176.933333,135.714286 L176.933333,135.714286 C178.037903,135.714286 178.933333,134.818855 178.933333,133.714286 L178.933333,91.7371431 L178.933333,91.7371431 C178.933333,89.0419934 181.118184,86.8571429 183.813334,86.8571429 L190.32,86.8571429 L190.32,86.8571429 C193.015149,86.8571429 195.2,89.0419934 195.2,91.7371431 L195.2,212.262857 L195.2,212.262857 C195.2,214.958007 193.015149,217.142857 190.32,217.142857 L183.813334,217.142857 L183.813334,217.142857 C181.118184,217.142857 178.933333,214.958007 178.933333,212.262857 L178.933333,154 L178.933333,154 C178.933333,152.895431 178.037903,152 176.933333,152 L137.167093,152 L137.167093,152 C132.758998,152 128.53964,150.210999 125.47496,147.042555 C122.968148,144.450866 121.719157,143.332404 121.727988,143.687169 C121.736849,144.043148 123.00028,142.966699 125.518283,140.457822 L125.518282,140.457821 C128.567159,137.419994 132.695697,135.714286 136.999654,135.714286 Z" id="CH" fill="#FFFFFF"></path>
                <path d="M113.866667,86.8571429 L120.373333,86.8571429 C125.763632,86.8571429 130.133333,91.2319606 130.133333,96.6285718 L130.133333,113.503795 L130.133882,113.503795 C130.133882,117.297177 128.811266,120.971574 126.394273,123.89291 C123.185576,127.77115 121.720818,129.71027 122,129.71027 C122.279181,129.71027 120.814437,127.771168 117.60577,123.892962 L117.606061,123.892721 C115.189207,120.971552 113.866667,117.297365 113.866667,113.5042 L113.866667,86.8571429 Z M67.0666667,200.857143 L113.866667,200.857143 L113.866667,217.142857 L58.5599994,217.142857 C53.1697006,217.142857 48.8,212.76804 48.8,207.371429 L48.8,96.6285708 C48.8,91.2319602 53.1697006,86.8571429 58.5599994,86.8571429 L113.866667,86.8571429 L113.866667,103.142857 L67.0666667,103.142857 C65.9620972,103.142857 65.0666667,104.038288 65.0666667,105.142857 L65.0666667,198.857143 C65.0666667,199.961712 65.9620972,200.857143 67.0666667,200.857143 Z M117.569782,163.824479 C120.757825,159.943838 122.234565,158.003518 122,158.003518 C121.765442,158.003518 123.242086,159.943722 126.429931,163.82413 C128.824267,166.738791 130.133333,170.395454 130.133333,174.169248 L130.133333,207.371429 C130.133333,212.76804 125.763633,217.142857 120.373334,217.142857 L113.866667,217.142857 L113.866667,174.169936 L113.866155,174.169936 C113.866155,170.395994 115.175275,166.739189 117.569782,163.824479 Z" id="Combined-Shape" fill="#FFFFFF"></path>
            </g>
            <path d="M115.849998,99.1399994 L115.849998,95.1399994 L111.849998,95.1399994 L111.849998,97.1399994 L111.849998,97.1399994 L111.849998,97.1399994 C112.954568,97.1399994 113.849998,98.0354299 113.849998,99.1399994 L113.849998,99.1399994 L115.849998,99.1399994 Z" id="Combined-Shape" fill="#FFFFFF"></path>
            <path d="M115.860001,196.850006 L115.860001,192.850006 L111.860001,192.850006 L111.860001,194.850006 L111.860001,194.850006 L111.860001,194.850006 C112.96457,194.850006 113.860001,195.745437 113.860001,196.850006 L113.860001,196.850006 L115.860001,196.850006 Z" id="Combined-Shape" fill="#FFFFFF" transform="translate(113.860001, 194.850006) scale(1, -1) translate(-113.860001, -194.850006) "></path>
        </g>
    </g>
</svg>