<?xml version="1.0" encoding="UTF-8"?>
<svg width="54px" height="54px" viewBox="0 0 54 54" version="1.1" xmlns="http://www.w3.org/2000/svg" xmlns:xlink="http://www.w3.org/1999/xlink">
    <!-- Generator: Sketch 46.2 (44496) - http://www.bohemiancoding.com/sketch -->
    <title>icon/iconChallenge_3</title>
    <desc>Created with Sketch.</desc>
    <defs></defs>
    <g id="Page-1" stroke="none" stroke-width="1" fill="none" fill-rule="evenodd">
        <g id="portfolio" transform="translate(-947.000000, -1439.000000)">
            <g id="icon/iconWorks" transform="translate(930.000000, 1420.000000)">
                <g id="component/iconChallenge_3">
                    <g id="Group-3" transform="translate(17.000000, 19.000000)">
                        <path d="M27,33.6705882 C22.9650726,33.6705882 19.6941176,30.3996333 19.6941176,26.3647059 C19.6941176,22.3297785 22.9650726,19.0588235 27,19.0588235 C31.0349274,19.0588235 34.3058824,22.3297785 34.3058824,26.3647059 C34.3058824,30.3996333 31.0349274,33.6705882 27,33.6705882 Z M27,30.4941176 C29.2806111,30.4941176 31.1294118,28.645317 31.1294118,26.3647059 C31.1294118,24.0840947 29.2806111,22.2352941 27,22.2352941 C24.7193889,22.2352941 22.8705882,24.0840947 22.8705882,26.3647059 C22.8705882,28.645317 24.7193889,30.4941176 27,30.4941176 Z" id="Combined-Shape" fill="#FCFCFC"></path>
                        <path d="M27,54 C12.0883118,54 0,41.9116882 0,27 C0,12.0883118 12.0883118,0 27,0 C41.9116882,0 54,12.0883118 54,27 C54,41.9116882 41.9116882,54 27,54 Z M27.7937269,34.9411765 C35.7816296,34.9411765 47.9639244,29.8588235 47.9639244,26.0470588 C47.9639244,22.2010048 35.7816296,17.1529412 27.7937269,17.1529412 C19.8707931,17.1529412 7.62352941,22.2352941 7.62352941,26.0470588 C7.62352941,29.8588235 19.8058242,34.9411765 27.7937269,34.9411765 Z" id="Combined-Shape" fill="#FFFFFF"></path>
                    </g>
                </g>
            </g>
        </g>
    </g>
</svg>