<?xml version="1.0" encoding="UTF-8"?>
<svg width="40px" height="48px" viewBox="0 0 40 48" version="1.1" xmlns="http://www.w3.org/2000/svg" xmlns:xlink="http://www.w3.org/1999/xlink">
    <!-- Generator: Sketch 46.2 (44496) - http://www.bohemiancoding.com/sketch -->
    <title>icon/iconSolution_1</title>
    <desc>Created with Sketch.</desc>
    <defs></defs>
    <g id="Page-1" stroke="none" stroke-width="1" fill="none" fill-rule="evenodd">
        <g id="portfolio" transform="translate(-402.000000, -2128.000000)">
            <g id="component/iconChallenge_9" transform="translate(378.000000, 2108.000000)">
                <path d="M28,20 L60,20 C62.209139,20 64,21.790861 64,24 L64,64 C64,66.209139 62.209139,68 60,68 L28,68 C25.790861,68 24,66.209139 24,64 L24,24 C24,21.790861 25.790861,20 28,20 Z M38.3550072,44 L38.3550072,28 L35,28 L35,44 L38.3550072,44 Z M52.7897949,28.3473541 C52.1246376,28.1302567 51.2913762,28.0144732 50.2899856,28 L43.3277974,28 L43.3277974,44 L50.2899856,44 C52.731332,44 54.5367318,43.0049851 55.706239,41.0149254 C56.5687507,39.5386629 57,37.7367813 57,35.6092266 C57,34.7697832 56.8976696,33.8869336 56.6930059,32.9606513 C56.4883421,32.034369 56.1046033,31.1732288 55.5417779,30.3772049 C54.8400735,29.3930299 53.922755,28.7164198 52.7897949,28.3473541 Z M36,51 L36,53 L52,53 L52,51 L36,51 Z M36,57 L36,59 L52,59 L52,57 L36,57 Z" id="Combined-Shape" fill="#FFFFFF"></path>
                <path d="M46.3999939,31 L49.5137915,31 C51.0487697,31 52.0739006,31.4359974 52.5892147,32.3080054 C53.1045289,33.1800134 53.3621821,34.430114 53.3621821,36.0583446 C53.3621821,37.2379073 53.1904133,38.2546316 52.8468705,39.1085482 C52.2182604,40.664413 51.1072451,41.4423338 49.5137915,41.4423338 L46.3999939,41.4423338 L46.3999939,31 Z" id="Combined-Shape" fill="#FCFCFC"></path>
            </g>
        </g>
    </g>
</svg>