<?xml version="1.0" encoding="UTF-8"?>
<svg width="48px" height="40px" viewBox="0 0 48 40" version="1.1" xmlns="http://www.w3.org/2000/svg" xmlns:xlink="http://www.w3.org/1999/xlink">
    <!-- Generator: Sketch 46.2 (44496) - http://www.bohemiancoding.com/sketch -->
    <title>icon/iconSolution_2</title>
    <desc>Created with Sketch.</desc>
    <defs></defs>
    <g id="Page-1" stroke="none" stroke-width="1" fill="none" fill-rule="evenodd">
        <g id="portfolio" transform="translate(-683.000000, -2168.000000)" fill="#FCFCFC">
            <g id="component/iconChallenge_10" transform="translate(663.000000, 2144.000000)">
                <g id="icon" transform="translate(20.000000, 24.000000)">
                    <path d="M4,0 L44,0 C46.209139,0 48,1.790861 48,4 L48,36 C48,38.209139 46.209139,40 44,40 L4,40 C1.790861,40 0,38.209139 0,36 L0,4 C0,1.790861 1.790861,0 4,0 Z M5,3 C3.8954305,3 3,3.8954305 3,5 L3,35 C3,36.1045695 3.8954305,37 5,37 L37,37 C38.1045695,37 39,36.1045695 39,35 L39,5 C39,3.8954305 38.1045695,3 37,3 L5,3 Z M43,22 C44.1045695,22 45,21.1045695 45,20 C45,18.8954305 44.1045695,18 43,18 C41.8954305,18 41,18.8954305 41,20 C41,21.1045695 41.8954305,22 43,22 Z" id="Combined-Shape"></path>
                    <path d="M15.4377195,22.8472878 C14.7447495,22.4168186 14.0991565,21.9110292 13.5133994,21.3365639 C13.2974842,21.124811 12.9436765,21.1212198 12.7231477,21.3285427 C12.502619,21.5358656 12.4988789,21.8755937 12.7147941,22.0873466 C13.4018003,22.7611092 14.1639151,23.3490663 14.9843652,23.8422895 L12.65253,28.9600969 C12.4051208,29.5030995 12.6629898,30.1358735 13.2284966,30.3734371 C13.7940033,30.6110008 14.4530019,30.3633936 14.7004111,29.8203909 L16.982551,24.8116526 C18.3979807,25.3484268 19.9255041,25.6341463 21.5,25.6341463 C23.0744879,25.6341463 24.602011,25.3484314 26.0174493,24.8116533 L28.2995889,29.8203909 C28.5469981,30.3633936 29.2059967,30.6110008 29.7715034,30.3734371 C30.3370102,30.1358735 30.5948792,29.5030995 30.34747,28.9600969 L28.0156344,23.8422886 C28.8346504,23.3499266 29.5955405,22.7631582 30.2816204,22.0908615 C30.4976269,21.8791945 30.4940334,21.539465 30.2735942,21.3320544 C30.0531549,21.1246437 29.6993456,21.1280942 29.4833391,21.3397612 C28.8984406,21.9129092 28.2539581,22.4176192 27.56228,22.8472868 L23.5478811,14.036664 C23.3224768,13.5419567 22.9111579,13.147006 22.395948,12.9305716 C22.1438155,12.8246533 21.8823907,12.7669572 21.6228647,12.7532783 C22.1789633,12.7131338 22.6176471,12.2492604 22.6176471,11.6829268 L22.6176471,10.0731707 C22.6176471,9.4804749 22.1371722,9 21.5444763,9 L21.4555237,9 C20.8628278,9 20.3823529,9.4804749 20.3823529,10.0731707 L20.3823529,11.6829268 C20.3823529,12.2495835 20.8215374,12.7136631 21.3780872,12.7533466 C20.5626648,12.7967265 19.8018194,13.269157 19.4521189,14.036664 L15.4377195,22.8472878 L15.4377195,22.8472878 Z M17.4308582,23.827728 L21.5,14.8969581 L25.5691421,23.8277287 C24.2931697,24.3064331 22.9177933,24.5609756 21.5,24.5609756 C20.0822003,24.5609756 18.7068233,24.306429 17.4308582,23.827728 Z M5.88888889,4 L36.1111111,4 C37.1543156,4 38,4.84568436 38,5.88888889 L38,34.1111111 C38,35.1543156 37.1543156,36 36.1111111,36 L5.88888889,36 C4.84568436,36 4,35.1543156 4,34.1111111 L4,5.88888889 C4,4.84568436 4.84568436,4 5.88888889,4 Z" id="Combined-Shape"></path>
                </g>
            </g>
        </g>
    </g>
</svg>