<?xml version="1.0" encoding="UTF-8"?>
<svg width="192px" height="191px" viewBox="0 0 192 191" version="1.1" xmlns="http://www.w3.org/2000/svg" xmlns:xlink="http://www.w3.org/1999/xlink">
    <!-- Generator: Sketch 47.1 (45422) - http://www.bohemiancoding.com/sketch -->
    <title>icon/iconEmpathy</title>
    <desc>Created with Sketch.</desc>
    <defs>
        <path d="M27.899782,163.137535 C65.0994912,200.287488 125.412137,200.287488 162.611846,163.137535 C199.811555,125.987582 199.811555,65.7556082 162.611846,28.6056553 C125.412137,-8.54429755 65.0994912,-8.54429755 27.899782,28.6056553 C-9.29992732,65.7556082 -9.29992732,125.987582 27.899782,163.137535 Z" id="path-1"></path>
        <path d="M30.004658,161.035475 C66.0418763,197.024492 124.469752,197.024492 160.50697,161.035475 C196.544188,125.046458 196.544188,66.6967328 160.50697,30.7077159 C124.469752,-5.2813009 66.0418763,-5.2813009 30.004658,30.7077159 C-6.0325604,66.6967328 -6.0325604,125.046458 30.004658,161.035475 Z" id="path-2"></path>
        <path d="M144.03286,182.420491 C154.495278,192.868915 171.45821,192.868915 181.920628,182.420491 C192.383046,171.972067 192.383046,155.031824 181.920628,144.5834 C171.45821,134.134976 154.495278,134.134976 144.03286,144.5834 C133.570442,155.031824 133.570442,171.972067 144.03286,182.420491 Z" id="path-3"></path>
        <path d="M9.33518577,182.420491 C19.797604,192.868915 36.7605355,192.868915 47.2229538,182.420491 C57.685372,171.972067 57.685372,155.031824 47.2229538,144.5834 C36.7605355,134.134976 19.797604,134.134976 9.33518577,144.5834 C-1.12723247,155.031824 -1.12723247,171.972067 9.33518577,182.420491 Z" id="path-4"></path>
        <path d="M9.33518577,47.9029814 C19.797604,58.3514057 36.7605355,58.3514057 47.2229538,47.9029814 C57.685372,37.4545572 57.685372,20.5143144 47.2229538,10.0658902 C36.7605355,-0.382534076 19.797604,-0.382534076 9.33518577,10.0658902 C-1.12723247,20.5143144 -1.12723247,37.4545572 9.33518577,47.9029814 Z" id="path-5"></path>
        <path d="M146.265418,45.6734094 C156.727837,56.1218337 173.690768,56.1218337 184.153186,45.6734094 C194.615605,35.2249852 194.615605,18.2847424 184.153186,7.83631818 C173.690768,-2.61210606 156.727837,-2.61210606 146.265418,7.83631818 C135.803,18.2847424 135.803,35.2249852 146.265418,45.6734094 Z" id="path-6"></path>
    </defs>
    <g id="Page-1" stroke="none" stroke-width="1" fill="none" fill-rule="evenodd">
        <g id="Artboard" transform="translate(-983.000000, -233.000000)">
            <g id="icon/iconEmpathy" transform="translate(983.000000, 233.000000)">
                <g id="Oval-18">
                    <use fill="#040829" fill-rule="evenodd" xlink:href="#path-1"></use>
                    <path stroke="#FFFFFF" stroke-width="0.5" d="M28.0764403,162.96064 C65.1785456,200.01312 125.333082,200.01312 162.435188,162.96064 C199.537108,125.908346 199.537108,65.8348451 162.435188,28.7825503 C125.333082,-8.26992921 65.1785456,-8.26992921 28.0764403,28.7825503 C-9.0254801,65.8348451 -9.0254801,125.908346 28.0764403,162.96064 Z"></path>
                </g>
                <g id="Oval-18">
                    <use fill="#040829" fill-rule="evenodd" xlink:href="#path-2"></use>
                    <path stroke="#FFFFFF" stroke-width="0.5" d="M30.1813163,160.85858 C66.1209307,196.750123 124.390697,196.750123 160.330312,160.85858 C196.269741,124.967221 196.269741,66.7759697 160.330312,30.8846109 C124.390697,-5.00693255 66.1209307,-5.00693255 30.1813163,30.8846109 C-5.75811319,66.7759697 -5.75811319,124.967221 30.1813163,160.85858 Z"></path>
                </g>
                <g id="Oval-18">
                    <use fill="#040829" fill-rule="evenodd" xlink:href="#path-3"></use>
                    <path stroke="#FFFFFF" stroke-width="0.5" d="M144.209519,182.243596 C154.574333,192.594547 171.379156,192.594547 181.74397,182.243596 C192.108599,171.89283 192.108599,155.111061 181.74397,144.760295 C171.379156,134.409344 154.574333,134.409344 144.209519,144.760295 C133.844889,155.111061 133.844889,171.89283 144.209519,182.243596 Z"></path>
                </g>
                <g id="Oval-18">
                    <use fill="#040829" fill-rule="evenodd" xlink:href="#path-4"></use>
                    <path stroke="#FFFFFF" stroke-width="0.5" d="M9.51184412,182.243596 C19.8766584,192.594547 36.6814811,192.594547 47.0462954,182.243596 C57.4109248,171.89283 57.4109248,155.111061 47.0462954,144.760295 C36.6814811,134.409344 19.8766584,134.409344 9.51184412,144.760295 C-0.85278525,155.111061 -0.85278525,171.89283 9.51184412,182.243596 Z"></path>
                </g>
                <g id="Oval-18">
                    <use fill="#040829" fill-rule="evenodd" xlink:href="#path-5"></use>
                    <path stroke="#FFFFFF" stroke-width="0.5" d="M9.51184412,47.7260865 C19.8766584,58.0770373 36.6814811,58.0770373 47.0462954,47.7260865 C57.4109248,37.3753203 57.4109248,20.5935513 47.0462954,10.2427851 C36.6814811,-0.108165729 19.8766584,-0.108165729 9.51184412,10.2427851 C-0.85278525,20.5935513 -0.85278525,37.3753203 9.51184412,47.7260865 Z"></path>
                </g>
                <g id="Oval-18">
                    <use fill="#040829" fill-rule="evenodd" xlink:href="#path-6"></use>
                    <path stroke="#FFFFFF" stroke-width="0.5" d="M146.442077,45.4965145 C156.806891,55.8474653 173.611714,55.8474653 183.976528,45.4965145 C194.341157,35.1457483 194.341157,18.3639793 183.976528,8.01321314 C173.611714,-2.33773771 156.806891,-2.33773771 146.442077,8.01321314 C136.077447,18.3639793 136.077447,35.1457483 146.442077,45.4965145 Z"></path>
                </g>
                <g id="Group" transform="translate(61.023256, 43.848249)" stroke="#FFFFFF" stroke-width="0.5" fill="#FDFDFF">
                    <path d="M38.9895606,12.1022304 L71.4418605,12.1022304 L52.852679,63.4309622 L62.360268,98.6331781 L40.1038665,98.6331781 L35.7209302,110.735409 L31.337994,98.6331781 L9.08159243,98.6331781 L18.5891815,63.4309622 L-1.77635684e-15,12.1022304 L32.4522998,12.1022304 L35.7209302,0 L38.9895606,12.1022304 Z M38.9895606,12.1022304 L32.4522998,12.1022304 L18.5891815,63.4309622 L31.337994,98.6331781 L40.1038665,98.6331781 L52.852679,63.4309622 L38.9895606,12.1022304 Z" id="Combined-Shape"></path>
                </g>
            </g>
        </g>
    </g>
</svg>