<?xml version="1.0" encoding="UTF-8"?>
<svg width="34px" height="45px" viewBox="0 0 34 45" version="1.1" xmlns="http://www.w3.org/2000/svg" xmlns:xlink="http://www.w3.org/1999/xlink">
    <!-- Generator: Sketch 46.2 (44496) - http://www.bohemiancoding.com/sketch -->
    <title>icon/iconSolution_3</title>
    <desc>Created with Sketch.</desc>
    <defs></defs>
    <g id="Page-1" stroke="none" stroke-width="1" fill="none" fill-rule="evenodd">
        <g id="portfolio" transform="translate(-945.000000, -2195.000000)" fill="#FFFFFF">
            <g id="component/iconChallenge_-11" transform="translate(918.000000, 2173.000000)">
                <g id="Group-3" transform="translate(26.000000, 22.000000)">
                    <path d="M14.1260175,40 C14.043753,40.3196199 14,40.6547004 14,41 C14,43.209139 15.790861,45 18,45 C20.209139,45 22,43.209139 22,41 C22,40.6547004 21.956247,40.3196199 21.8739825,40 L14.1260175,40 Z" id="Combined-Shape"></path>
                    <path d="M18.1924724,2 L18.1924724,31.5706091 L3,31.5706091 L4.39349919,26.9476897 C6.07468546,21.0466429 6.99097668,16.1008718 7.14237285,12.1103762 C7.33749573,6.96733377 10.7451334,4.605736 11.5283407,4.10833997 C13.7415568,2.70277999 15.962934,2 18.1924724,2 Z M18.1924724,2.02029351 C20.4220108,2.02029351 22.643388,2.7230735 24.856604,4.12863348 C25.6398114,4.62602951 29.047449,6.98762728 29.2425719,12.1306698 C29.3939681,16.1211653 30.3102593,21.0669364 31.9914456,26.9679832 L33.3849448,31.5909027 L18.1924724,31.5909027 L18.1924724,2.02029351 Z" id="Combined-Shape"></path>
                    <path d="M2.84238298,33 L33.157617,33 L34.301161,35.0115938 L34.301161,35.0115938 C34.8470427,35.9718474 34.5111279,37.1928112 33.5508743,37.7386929 C33.2496082,37.9099557 32.9090113,38 32.5624681,38 L3.43753193,38 L3.43753193,38 C2.33296244,38 1.43753193,37.1045695 1.43753193,36 C1.43753193,35.6534568 1.52757625,35.3128599 1.698839,35.0115938 L2.84238298,33 Z" id="Rectangle-3"></path>
                    <circle id="Oval-4" cx="18" cy="2" r="2"></circle>
                </g>
            </g>
        </g>
    </g>
</svg>