<?xml version="1.0" encoding="UTF-8"?>
<svg width="191px" height="191px" viewBox="0 0 191 191" version="1.1" xmlns="http://www.w3.org/2000/svg" xmlns:xlink="http://www.w3.org/1999/xlink">
    <!-- Generator: Sketch 47.1 (45422) - http://www.bohemiancoding.com/sketch -->
    <title>icon/iconEmpathy</title>
    <desc>Created with Sketch.</desc>
    <defs>
        <path d="M119.739798,33.4358894 C130.313963,52.5474657 130.317018,75.931547 119.748964,95.0455924 C112.729166,89.9580313 102.852661,90.5740297 96.5246393,96.8935874 C90.1966176,103.213145 89.5797942,113.07644 94.6741692,120.086849 C75.6583522,130.572486 52.4219274,130.637314 33.3539226,120.281331 C38.6026007,113.25986 38.0335586,103.271807 31.6467962,96.8935874 C25.2120095,90.4674075 15.1079906,89.9388689 8.06963196,95.3079716 C-2.62502643,76.1799856 -2.68948644,52.7187488 7.87625193,33.5385271 C14.921858,39.0664617 25.1528387,38.5877932 31.6467962,32.1025216 C38.1407538,25.61725 38.6200634,15.3999538 33.0847251,8.36377153 C52.4077566,-2.25217914 76.0699752,-2.12228055 95.2868143,8.75346607 C91.1746686,15.6376106 92.0859985,24.6814908 98.0208039,30.6083582 C103.908326,36.4880058 112.867501,37.4305162 119.739798,33.4358894 Z" id="path-1"></path>
        <path d="M117.96066,34.3407562 C128.214641,52.8263337 128.250094,75.4505454 118.06702,93.9647417 C111.218458,90.0878963 102.361856,91.0641782 96.5246393,96.8935874 C90.6874225,102.722997 89.7098331,111.567752 93.5918709,118.407154 C75.2435623,128.472009 52.8639594,128.540851 34.4605042,118.613679 C38.4808459,111.746646 37.5429432,102.781848 31.6467962,96.8935874 C25.7017966,90.9565395 16.6248778,90.0534973 9.72713021,94.1844608 C-0.513565079,75.7448885 -0.582067217,53.1814259 9.52162379,34.6866826 C16.4437057,38.9601055 25.6425684,38.0987185 31.6467962,32.1025216 C37.6510241,26.1063247 38.5135648,16.9197659 34.2344183,10.0069426 C52.9381475,-0.183601999 75.7975006,-0.0124575806 94.3616472,10.5203759 C91.3619261,17.1264733 92.581645,25.1764744 98.0208039,30.6083582 C103.412081,35.9924241 111.379028,37.2365568 117.96066,34.3407562 Z" id="path-2"></path>
        <path d="M64.448621,75.7277487 L64.2866989,75.7277487 C63.9360247,75.7277487 63.6446457,75.9980927 63.6184188,76.3477847 L61.9301158,98.8584905 C61.7746441,100.931447 60.0473646,102.534031 57.9685864,102.534031 C57.8336669,102.534031 57.698878,102.52564 57.5650003,102.508905 C55.7818448,102.286011 54.5170032,100.659786 54.7398977,98.8766302 L57.6335079,75.7277487 L57.6335079,60.9842932 C57.6335079,60.2440581 57.0334288,59.6439791 56.2931937,59.6439791 L40.8780129,59.6439791 C39.0282914,59.6439791 37.5287958,58.1444835 37.5287958,56.294762 C37.5287958,54.4450405 39.0282914,52.945545 40.8780129,52.945545 L62.9947644,52.945545 L62.9947644,52.9424084 L87.7921442,52.9424084 C89.6418657,52.9424084 91.1413613,54.4419039 91.1413613,56.2916254 C91.1413613,58.1413469 89.6418657,59.6408425 87.7921442,59.6408425 L72.3769634,59.6408425 C71.6367283,59.6408425 71.0366492,60.2409215 71.0366492,60.9811566 L71.0366492,75.7246121 L73.9302594,98.8734936 C74.1531539,100.656649 72.8883123,102.282874 71.1051568,102.505768 C70.9712791,102.522503 70.8364902,102.530895 70.7015707,102.530895 C68.6227925,102.530895 66.895513,100.92831 66.7400412,98.8553539 L65.0517383,76.3446482 C65.0271546,76.0168651 64.7696028,75.758799 64.448621,75.7277487 Z M64.3350785,48.921466 C60.6339032,48.921466 57.6335079,45.9210706 57.6335079,42.2198953 C57.6335079,38.51872 60.6339032,35.5183246 64.3350785,35.5183246 C68.0362538,35.5183246 71.0366492,38.51872 71.0366492,42.2198953 C71.0366492,45.9210706 68.0362538,48.921466 64.3350785,48.921466 Z" id="path-3"></path>
    </defs>
    <g id="draft" stroke="none" stroke-width="1" fill="none" fill-rule="evenodd">
        <g id="icon/iconEmpathy">
            <g id="icon" transform="translate(32.000000, 32.000000)">
                <g id="Combined-Shape">
                    <use fill="#040829" fill-rule="evenodd" xlink:href="#path-1"></use>
                    <path stroke="#FFFFFF" stroke-width="0.5" d="M119.665315,94.6789194 C119.620464,94.7609 119.575419,94.8428026 119.530178,94.9246267 L119.895673,94.8431652 C119.819202,94.7877434 119.742413,94.732995 119.665315,94.6789194 Z M94.3069994,120.003106 C94.3612981,120.080323 94.4162745,120.157228 94.4719289,120.233814 L94.5534515,119.867926 C94.4713801,119.913182 94.3892297,119.958242 94.3070009,120.003108 Z M33.7255377,120.197925 C33.6413572,120.1527 33.5572571,120.107272 33.4732381,120.061641 L33.5541609,120.431013 C33.6119884,120.353653 33.6691139,120.275955 33.7255377,120.197925 Z M8.14882293,94.9359882 C8.07154544,94.9930324 7.99460315,95.0507705 7.91800426,95.1092028 L8.28784116,95.1859685 C8.24129871,95.1027248 8.19495833,95.0193985 8.14882001,94.9359903 Z M7.95501519,33.915081 C8.00154127,33.8296873 8.04827813,33.7443775 8.09522575,33.6591524 L7.72193292,33.7352138 C7.79926516,33.7958881 7.87696213,33.8558438 7.95501519,33.915081 Z M33.4618149,8.44261897 C33.402337,8.36445113 33.3421358,8.28664086 33.2812109,8.20919688 L33.2051027,8.58288159 C33.2905888,8.53591611 33.3761598,8.4891619 33.4618149,8.44261897 Z M94.9422528,8.84631056 C95.0161273,8.8877278 95.0899363,8.92930381 95.1636794,8.97103858 L95.0721892,8.62526283 C95.0283067,8.69872643 94.9849948,8.77241097 94.9422528,8.84631056 Z M119.643359,33.7790368 C119.717594,33.7372684 119.791621,33.6949325 119.865432,33.6520284 L119.521049,33.5569206 C119.561978,33.6308952 119.602748,33.7049341 119.643359,33.7790368 Z M119.643359,33.7790368 C130.008359,52.6919491 130.015976,75.7595971 119.665315,94.6789194 C112.489977,89.6462365 102.631232,90.4418453 96.3479809,96.7166924 C90.0647591,102.99151 89.2679038,112.837162 94.3069994,120.003106 C75.5014903,130.263805 52.5943601,130.334987 33.7255377,120.197925 C38.9128849,113.024248 38.169304,103.054054 31.8234546,96.7166924 C25.425091,90.326887 15.3368672,89.62996 8.14882293,94.9359882 C-2.31475865,76.0200922 -2.3856821,52.8943414 7.95501519,33.915081 C15.1468184,39.3731987 25.3616174,38.7326107 31.8234546,32.2794165 C38.2852651,25.826249 38.9268967,15.6250119 33.4618149,8.44261897 C52.598933,-1.95602819 75.937553,-1.8085471 94.9422528,8.84631056 C90.8595145,15.9052462 91.9774129,24.9263676 97.8441456,30.7852531 C103.66064,36.593968 112.594664,37.7449598 119.643359,33.7790368 Z"></path>
                </g>
                <g id="Combined-Shape">
                    <use fill="#FCFCFC" fill-rule="evenodd" xlink:href="#path-2"></use>
                    <path stroke="#FFFFFF" stroke-width="0.5" d="M117.968634,93.6237961 C117.928573,93.6973484 117.888351,93.7708364 117.847967,93.8442596 L118.190176,93.7471816 C118.116533,93.7054934 118.042684,93.6643651 117.968634,93.6237961 Z M93.2505392,118.308655 C93.29128,118.382826 93.3325842,118.456797 93.3744523,118.53056 L93.4716363,118.187965 C93.3980024,118.228357 93.3243032,118.268586 93.2505392,118.308655 Z M34.8057009,118.515218 C34.7301315,118.474864 34.6546285,118.434341 34.5791924,118.393649 L34.6762494,118.739988 C34.719985,118.665285 34.7631353,118.590359 34.8057009,118.515218 Z M9.8216342,93.8385992 C9.74709469,93.8818146 9.67277528,93.9256088 9.59868202,93.9699822 L9.94568719,94.0630819 C9.90416837,93.9883223 9.86281737,93.9134946 9.8216342,93.8385992 Z M9.61602192,35.0365175 C9.6575126,34.9597883 9.69917849,34.8831285 9.7410196,34.8065386 L9.39029464,34.8994093 C9.46529708,34.9457129 9.54054164,34.9914154 9.61602192,35.0365175 Z M34.5846767,10.1014471 C34.5393853,10.0258455 34.4934891,9.95048056 34.4469876,9.87535888 L34.3540274,10.2264732 C34.4308407,10.1846222 34.507724,10.1429469 34.5846767,10.1014471 Z M94.0406269,10.6261581 C94.1065647,10.6632465 94.1724483,10.7004655 94.2382774,10.7378153 L94.134016,10.4170123 C94.1024192,10.4865958 94.0712897,10.5563124 94.0406269,10.6261581 Z M117.851559,34.6603259 C117.921612,34.6305438 117.991541,34.6002975 118.061341,34.5695865 L117.742041,34.4620243 C117.778678,34.5280718 117.815184,34.5941725 117.851559,34.6603259 Z M117.851559,34.6603259 C127.912336,52.9574767 127.954824,75.289072 117.968634,93.6237961 C110.941826,89.7740703 102.111665,90.960718 96.3479809,96.7166924 C90.5843313,102.472633 89.3959309,111.291062 93.2505392,118.308655 C75.0995522,128.168177 53.0235679,128.243608 34.8057009,118.515218 C38.7952154,111.472511 37.6483638,102.533811 31.8234546,96.7166924 C25.9465476,90.8476461 16.8934907,89.7385805 9.8216342,93.8385992 C-0.208343359,75.598155 -0.283528367,53.3438582 9.61602192,35.0365175 C16.7094551,39.2750883 25.8846498,38.2102779 31.8234546,32.2794165 C37.7622266,26.348588 38.8286329,17.1855822 34.5846767,10.1014471 C53.1186112,0.106301231 75.678959,0.298173562 94.0406269,10.6261581 C91.0569055,17.4226651 92.4921218,25.440388 97.8441456,30.7852531 C103.146471,36.0804864 111.078986,37.5395974 117.851559,34.6603259 Z"></path>
                </g>
                <g id="Combined-Shape">
                    <use fill="#040829" fill-rule="evenodd" xlink:href="#path-3"></use>
                    <path stroke="#040829" stroke-width="0.5" d="M63.2447644,53.1924084 L63.2447644,53.195545 L40.8780129,53.195545 C39.1663625,53.195545 37.7787958,54.5831117 37.7787958,56.294762 C37.7787958,58.0064123 39.1663625,59.3939791 40.8780129,59.3939791 L56.2931937,59.3939791 C57.1715,59.3939791 57.8835079,60.1059869 57.8835079,60.9842932 L57.8815773,75.7587574 L54.9879671,98.9076389 C54.7821983,100.553789 55.9498584,102.055067 57.596009,102.260836 C57.7196004,102.276285 57.8440331,102.284031 57.9685864,102.284031 C59.9165467,102.284031 61.5351282,100.782298 61.680816,98.839793 L63.3691189,76.3290873 C63.4051297,75.8489436 63.8052068,75.4777487 64.2866989,75.4777487 L64.448621,75.4777487 L64.4726925,75.4789103 C64.916517,75.5218438 65.2674904,75.8786472 65.3010381,76.3259507 L66.9893411,98.8366564 C67.1350289,100.779161 68.7536104,102.280895 70.7015707,102.280895 C70.8261239,102.280895 70.9505566,102.273148 71.0741481,102.257699 C72.7202986,102.05193 73.8879588,100.550653 73.6821899,98.9045023 L70.7866492,75.7246121 L70.7866492,60.9811566 C70.7866492,60.1028504 71.4986571,59.3908425 72.3769634,59.3908425 L87.7921442,59.3908425 C89.5037945,59.3908425 90.8913613,58.0032757 90.8913613,56.2916254 C90.8913613,54.5799751 89.5037945,53.1924084 87.7921442,53.1924084 L63.2447644,53.1924084 Z M64.3350785,48.671466 C67.8981826,48.671466 70.7866492,45.7829994 70.7866492,42.2198953 C70.7866492,38.6567912 67.8981826,35.7683246 64.3350785,35.7683246 C60.7719744,35.7683246 57.8835079,38.6567912 57.8835079,42.2198953 C57.8835079,45.7829994 60.7719744,48.671466 64.3350785,48.671466 Z"></path>
                </g>
                <path d="M104.889445,23.7807121 C108.029996,26.9212635 113.121836,26.9212635 116.262388,23.7807121 C119.402939,20.6401608 119.402939,15.5483209 116.262388,12.4077696 C113.121836,9.26721818 108.029996,9.26721818 104.889445,12.4077696 C101.748894,15.5483209 101.748894,20.6401608 104.889445,23.7807121 Z" id="Oval-18" fill="#FFFFFF"></path>
                <path d="M103.549131,115.59223 C106.689682,118.732782 111.781522,118.732782 114.922073,115.59223 C118.062625,112.451679 118.062625,107.359839 114.922073,104.219288 C111.781522,101.078737 106.689682,101.078737 103.549131,104.219288 C100.408579,107.359839 100.408579,112.451679 103.549131,115.59223 Z" id="Oval-18" fill="#FFFFFF"></path>
                <path d="M13.7480837,25.1210263 C16.8886351,28.2615776 21.9804749,28.2615776 25.1210263,25.1210263 C28.2615776,21.9804749 28.2615776,16.8886351 25.1210263,13.7480837 C21.9804749,10.6075323 16.8886351,10.6075323 13.7480837,13.7480837 C10.6075323,16.8886351 10.6075323,21.9804749 13.7480837,25.1210263 Z" id="Oval-18" fill="#FFFFFF"></path>
                <path d="M13.0779266,115.59223 C16.218478,118.732782 21.3103178,118.732782 24.4508692,115.59223 C27.5914206,112.451679 27.5914206,107.359839 24.4508692,104.219288 C21.3103178,101.078737 16.218478,101.078737 13.0779266,104.219288 C9.93737525,107.359839 9.93737525,112.451679 13.0779266,115.59223 Z" id="Oval-18" fill="#FFFFFF"></path>
            </g>
        </g>
    </g>
</svg>