<?xml version="1.0" encoding="UTF-8"?>
<svg width="56px" height="56px" viewBox="0 0 56 56" version="1.1" xmlns="http://www.w3.org/2000/svg" xmlns:xlink="http://www.w3.org/1999/xlink">
    <!-- Generator: Sketch 46.2 (44496) - http://www.bohemiancoding.com/sketch -->
    <title>icon/iconChallenge_1</title>
    <desc>Created with Sketch.</desc>
    <defs></defs>
    <g id="Page-1" stroke="none" stroke-width="1" fill="none" fill-rule="evenodd">
        <g id="portfolio" transform="translate(-390.000000, -1306.000000)" fill="#FFFFFF">
            <g id="component/iconChallenge_1" transform="translate(374.000000, 1290.000000)">
                <path d="M43,52 L43,47 L33,47 C31.8954305,47 31,46.1045695 31,45 L31,44 L57,44 L57,45 C57,46.1045695 56.1045695,47 55,47 L45,47 L45,52 L66,52 L66,59 L72,59 L72,72 L58,72 L58,59 L64,59 L64,54 L45,54 L45,59 L43,59 L43,54 L24,54 L24,59 L22,59 L22,52 L43,52 Z M33,16 L55,16 L55,16 C56.1045695,16 57,16.8954305 57,18 L57,42 L31,42 L31,18 C31,16.8954305 31.8954305,16 33,16 L33,16 Z M16,59 L30,59 L30,72 L16,72 L16,59 Z M37,59 L51,59 L51,72 L37,72 L37,59 Z M38.232,23.568 L38.232,34 L40.584,34 L40.584,23.568 L38.232,23.568 Z M43.048,23.568 L43.048,34 L45.4,34 L45.4,30.464 L46.856,30.464 C47.4106694,30.464 47.9333309,30.3946674 48.424,30.256 C48.9146691,30.1173326 49.3466648,29.9040014 49.72,29.616 C50.0933352,29.3279986 50.3893322,28.9600022 50.608,28.512 C50.8266678,28.0639978 50.936,27.536003 50.936,26.928 C50.936,26.2986635 50.8293344,25.7680022 50.616,25.336 C50.4026656,24.9039978 50.1120018,24.5573346 49.744,24.296 C49.3759982,24.0346654 48.9440025,23.8480006 48.448,23.736 C47.9519975,23.6239994 47.4213362,23.568 46.856,23.568 L43.048,23.568 Z M46.7119939,28.5520244 L45.3999939,28.5520244 L45.3999939,25.4000244 L46.7119939,25.4000244 C47.3413304,25.4000244 47.8186589,25.5120233 48.1439939,25.7360244 C48.4693289,25.9600255 48.6319939,26.3440217 48.6319939,26.8880244 C48.6319939,27.9973633 47.9920003,28.5520244 46.7119939,28.5520244 Z" id="Combined-Shape"></path>
            </g>
        </g>
    </g>
</svg>