<?xml version="1.0" encoding="UTF-8"?>
<svg width="48px" height="42px" viewBox="0 0 48 42" version="1.1" xmlns="http://www.w3.org/2000/svg" xmlns:xlink="http://www.w3.org/1999/xlink">
    <!-- Generator: Sketch 46.2 (44496) - http://www.bohemiancoding.com/sketch -->
    <title>icon/iconChallenge_2</title>
    <desc>Created with Sketch.</desc>
    <defs></defs>
    <g id="Page-1" stroke="none" stroke-width="1" fill="none" fill-rule="evenodd">
        <g id="portfolio" transform="translate(-669.000000, -1350.000000)" fill="#FFFFFF">
            <g id="icon/iconWorks" transform="translate(649.000000, 1327.000000)">
                <g id="component/iconChallenge_2">
                    <path d="M22,23 L66,23 C67.1045695,23 68,23.8954305 68,25 L68,29 L20,29 L20,25 C20,23.8954305 20.8954305,23 22,23 Z M22,25 L22,27 L24,27 L24,25 L22,25 Z M26,25 L26,27 L28,27 L28,25 L26,25 Z M30,25 L32,25 L32,27 L30,27 L30,25 Z M20,31 L68,31 L68,63 C68,64.1045695 67.1045695,65 66,65 L22,65 C20.8954305,65 20,64.1045695 20,63 L20,31 Z M40,54 L40,56 L54,56 L54,54 L40,54 Z M29.3580595,54.2834853 L30.6988814,55.7674654 L39.2689408,48.0241521 L30.6993322,40.2717812 L29.3576087,41.7549461 L36.2866987,48.0232459 L29.3580595,54.2834853 Z" id="Combined-Shape"></path>
                </g>
            </g>
        </g>
    </g>
</svg>